HIERARCHY
ROOT mixamorig:Hips
{
	OFFSET 0.000000 201.639420 0.000000
	CHANNELS 6 Xposition Yposition Zposition Xrotation Yrotation Zrotation
	JOINT mixamorig:Spine
	{
		OFFSET 0.006200 19.524994 -2.481800
		CHANNELS 3 Xrotation Yrotation Zrotation
		JOINT mixamorig:Spine1
		{
			OFFSET -0.000900 22.835007 -2.825400
			CHANNELS 3 Xrotation Yrotation Zrotation
			JOINT mixamorig:Spine2
			{
				OFFSET -0.020600 26.552490 -3.193300
				CHANNELS 3 Xrotation Yrotation Zrotation
				JOINT mixamorig:Neck
				{
					OFFSET -0.060000 30.701813 1.352200
					CHANNELS 3 Xrotation Yrotation Zrotation
					JOINT mixamorig:Head
					{
						OFFSET -0.087200 22.547607 3.670900
						CHANNELS 3 Xrotation Yrotation Zrotation
						JOINT mixamorig:HeadTop_End
						{
							OFFSET -0.830600 40.355194 7.893500
							CHANNELS 3 Xrotation Yrotation Zrotation
							End Site
							{
								OFFSET 0.000000 30.592346 0.000000
							}
						}
						JOINT mixamorig:RightEye
						{
							OFFSET -6.302100 18.118591 16.197100
							CHANNELS 3 Xrotation Yrotation Zrotation
							End Site
							{
								OFFSET 0.000000 30.592346 0.000000
							}
						}
						JOINT mixamorig:LeftEye
						{
							OFFSET 6.741500 18.382690 16.401899
							CHANNELS 3 Xrotation Yrotation Zrotation
							End Site
							{
								OFFSET 0.000000 30.592346 0.000000
							}
						}
					}
				}
				JOINT mixamorig:LeftShoulder
				{
					OFFSET 11.924900 18.230499 1.425400
					CHANNELS 3 Xrotation Yrotation Zrotation
					JOINT mixamorig:LeftArm
					{
						OFFSET 25.435989 -0.697632 -5.229300
						CHANNELS 3 Xrotation Yrotation Zrotation
						JOINT mixamorig:LeftForeArm
						{
							OFFSET 54.684776 0.000000 0.000000
							CHANNELS 3 Xrotation Yrotation Zrotation
							JOINT mixamorig:LeftHand
							{
								OFFSET 55.098175 0.000000 0.000000
								CHANNELS 3 Xrotation Yrotation Zrotation
								JOINT mixamorig:LeftHandMiddle1
								{
									OFFSET 23.369751 0.000000 0.000000
									CHANNELS 3 Xrotation Yrotation Zrotation
									JOINT mixamorig:LeftHandMiddle2
									{
										OFFSET 6.378677 0.000000 0.000000
										CHANNELS 3 Xrotation Yrotation Zrotation
										JOINT mixamorig:LeftHandMiddle3
										{
											OFFSET 6.148331 0.000000 0.000000
											CHANNELS 3 Xrotation Yrotation Zrotation
											JOINT mixamorig:LeftHandMiddle4
											{
												OFFSET 6.582504 0.000000 0.000000
												CHANNELS 3 Xrotation Yrotation Zrotation
												End Site
												{
													OFFSET -1.168900 6.395691 1.028606
												}
											}
										}
									}
								}
								JOINT mixamorig:LeftHandThumb1
								{
									OFFSET 7.235672 -3.848206 5.434273
									CHANNELS 3 Xrotation Yrotation Zrotation
									JOINT mixamorig:LeftHandThumb2
									{
										OFFSET 6.568451 -3.792297 3.792300
										CHANNELS 3 Xrotation Yrotation Zrotation
										JOINT mixamorig:LeftHandThumb3
										{
											OFFSET 6.063080 -3.500519 3.500518
											CHANNELS 3 Xrotation Yrotation Zrotation
											JOINT mixamorig:LeftHandThumb4
											{
												OFFSET 4.793182 -2.767334 2.767349
												CHANNELS 3 Xrotation Yrotation Zrotation
												End Site
												{
													OFFSET 0.101639 6.054260 1.275483
												}
											}
										}
									}
								}
								JOINT mixamorig:LeftHandIndex1
								{
									OFFSET 23.101074 -0.309540 4.992809
									CHANNELS 3 Xrotation Yrotation Zrotation
									JOINT mixamorig:LeftHandIndex2
									{
										OFFSET 6.226883 0.000000 0.000000
										CHANNELS 3 Xrotation Yrotation Zrotation
										JOINT mixamorig:LeftHandIndex3
										{
											OFFSET 6.094330 0.000000 0.000000
											CHANNELS 3 Xrotation Yrotation Zrotation
											JOINT mixamorig:LeftHandIndex4
											{
												OFFSET 5.482605 0.000000 0.000000
												CHANNELS 3 Xrotation Yrotation Zrotation
												End Site
												{
													OFFSET -1.427902 5.233032 0.797164
												}
											}
										}
									}
								}
								JOINT mixamorig:LeftHandRing1
								{
									OFFSET 22.299240 0.021149 -3.964172
									CHANNELS 3 Xrotation Yrotation Zrotation
									JOINT mixamorig:LeftHandRing2
									{
										OFFSET 6.321869 0.000000 0.000000
										CHANNELS 3 Xrotation Yrotation Zrotation
										JOINT mixamorig:LeftHandRing3
										{
											OFFSET 5.899796 0.000000 0.000000
											CHANNELS 3 Xrotation Yrotation Zrotation
											JOINT mixamorig:LeftHandRing4
											{
												OFFSET 6.517899 0.000000 0.000000
												CHANNELS 3 Xrotation Yrotation Zrotation
												End Site
												{
													OFFSET -1.637299 6.232208 0.980890
												}
											}
										}
									}
								}
								JOINT mixamorig:LeftHandPinky1
								{
									OFFSET 20.463791 -0.302338 -8.562233
									CHANNELS 3 Xrotation Yrotation Zrotation
									JOINT mixamorig:LeftHandPinky2
									{
										OFFSET 6.908646 0.000000 0.000000
										CHANNELS 3 Xrotation Yrotation Zrotation
										JOINT mixamorig:LeftHandPinky3
										{
											OFFSET 4.622849 0.000000 0.000000
											CHANNELS 3 Xrotation Yrotation Zrotation
											JOINT mixamorig:LeftHandPinky4
											{
												OFFSET 5.216080 0.000000 0.000000
												CHANNELS 3 Xrotation Yrotation Zrotation
												End Site
												{
													OFFSET -0.606308 5.116241 0.814926
												}
											}
										}
									}
								}
							}
						}
					}
				}
				JOINT mixamorig:RightShoulder
				{
					OFFSET -12.001300 18.284088 1.348900
					CHANNELS 3 Xrotation Yrotation Zrotation
					JOINT mixamorig:RightArm
					{
						OFFSET -25.308500 -0.751312 -5.164599
						CHANNELS 3 Xrotation Yrotation Zrotation
						JOINT mixamorig:RightForeArm
						{
							OFFSET -54.684429 0.000000 0.000000
							CHANNELS 3 Xrotation Yrotation Zrotation
							JOINT mixamorig:RightHand
							{
								OFFSET -55.150291 0.000000 0.000000
								CHANNELS 3 Xrotation Yrotation Zrotation
								JOINT mixamorig:RightHandMiddle1
								{
									OFFSET -23.317566 0.000000 0.000000
									CHANNELS 3 Xrotation Yrotation Zrotation
									JOINT mixamorig:RightHandMiddle2
									{
										OFFSET -6.378403 0.000000 0.000000
										CHANNELS 3 Xrotation Yrotation Zrotation
										JOINT mixamorig:RightHandMiddle3
										{
											OFFSET -6.148193 0.000000 0.000000
											CHANNELS 3 Xrotation Yrotation Zrotation
											JOINT mixamorig:RightHandMiddle4
											{
												OFFSET -6.583389 0.000000 0.000000
												CHANNELS 3 Xrotation Yrotation Zrotation
												End Site
												{
													OFFSET 1.171692 6.395905 1.029786
												}
											}
										}
									}
								}
								JOINT mixamorig:RightHandThumb1
								{
									OFFSET -7.190521 -3.860474 5.435846
									CHANNELS 3 Xrotation Yrotation Zrotation
									JOINT mixamorig:RightHandThumb2
									{
										OFFSET -6.567429 -3.791718 3.791708
										CHANNELS 3 Xrotation Yrotation Zrotation
										JOINT mixamorig:RightHandThumb3
										{
											OFFSET -6.062469 -3.500153 3.500166
											CHANNELS 3 Xrotation Yrotation Zrotation
											JOINT mixamorig:RightHandThumb4
											{
												OFFSET -4.792618 -2.767029 2.767022
												CHANNELS 3 Xrotation Yrotation Zrotation
												End Site
												{
													OFFSET -0.100327 6.053253 1.276754
												}
											}
										}
									}
								}
								JOINT mixamorig:RightHandIndex1
								{
									OFFSET -23.048981 -0.310791 4.992554
									CHANNELS 3 Xrotation Yrotation Zrotation
									JOINT mixamorig:RightHandIndex2
									{
										OFFSET -6.227539 0.000000 0.000000
										CHANNELS 3 Xrotation Yrotation Zrotation
										JOINT mixamorig:RightHandIndex3
										{
											OFFSET -6.095047 0.000000 0.000000
											CHANNELS 3 Xrotation Yrotation Zrotation
											JOINT mixamorig:RightHandIndex4
											{
												OFFSET -5.484772 0.000000 0.000000
												CHANNELS 3 Xrotation Yrotation Zrotation
												End Site
												{
													OFFSET 1.420593 5.237305 0.797056
												}
											}
										}
									}
								}
								JOINT mixamorig:RightHandRing1
								{
									OFFSET -22.246323 0.020569 -3.963762
									CHANNELS 3 Xrotation Yrotation Zrotation
									JOINT mixamorig:RightHandRing2
									{
										OFFSET -6.322128 0.000000 0.000000
										CHANNELS 3 Xrotation Yrotation Zrotation
										JOINT mixamorig:RightHandRing3
										{
											OFFSET -5.900024 0.000000 0.000000
											CHANNELS 3 Xrotation Yrotation Zrotation
											JOINT mixamorig:RightHandRing4
											{
												OFFSET -6.518356 0.000000 0.000000
												CHANNELS 3 Xrotation Yrotation Zrotation
												End Site
												{
													OFFSET 1.636398 6.232697 0.982186
												}
											}
										}
									}
								}
								JOINT mixamorig:RightHandPinky1
								{
									OFFSET -20.411011 -0.303314 -8.561701
									CHANNELS 3 Xrotation Yrotation Zrotation
									JOINT mixamorig:RightHandPinky2
									{
										OFFSET -6.907349 0.000000 0.000000
										CHANNELS 3 Xrotation Yrotation Zrotation
										JOINT mixamorig:RightHandPinky3
										{
											OFFSET -4.623840 0.000000 0.000000
											CHANNELS 3 Xrotation Yrotation Zrotation
											JOINT mixamorig:RightHandPinky4
											{
												OFFSET -5.218353 0.000000 0.000000
												CHANNELS 3 Xrotation Yrotation Zrotation
												End Site
												{
													OFFSET 0.602097 5.118835 0.816273
												}
											}
										}
									}
								}
							}
						}
					}
				}
			}
		}
	}
	JOINT mixamorig:LeftUpLeg
	{
		OFFSET 18.168400 -13.561905 -0.039000
		CHANNELS 3 Xrotation Yrotation Zrotation
		JOINT mixamorig:LeftLeg
		{
			OFFSET 0.577358 -80.825211 -3.695000
			CHANNELS 3 Xrotation Yrotation Zrotation
			JOINT mixamorig:LeftFoot
			{
				OFFSET -0.577356 -83.370262 -6.520700
				CHANNELS 3 Xrotation Yrotation Zrotation
				JOINT mixamorig:LeftToeBase
				{
					OFFSET 0.750401 -20.798306 25.135401
					CHANNELS 3 Xrotation Yrotation Zrotation
					JOINT mixamorig:LeftToe_End
					{
						OFFSET -0.000500 0.001200 19.917799
						CHANNELS 3 Xrotation Yrotation Zrotation
						End Site
						{
							OFFSET 0.000000 19.917805 0.000000
						}
					}
				}
			}
		}
	}
	JOINT mixamorig:RightUpLeg
	{
		OFFSET -18.162500 -13.585098 -0.041000
		CHANNELS 3 Xrotation Yrotation Zrotation
		JOINT mixamorig:RightLeg
		{
			OFFSET -0.595024 -80.945297 -3.631900
			CHANNELS 3 Xrotation Yrotation Zrotation
			JOINT mixamorig:RightFoot
			{
				OFFSET 0.595024 -83.218193 -6.561200
				CHANNELS 3 Xrotation Yrotation Zrotation
				JOINT mixamorig:RightToeBase
				{
					OFFSET -0.753601 -20.807106 25.115000
					CHANNELS 3 Xrotation Yrotation Zrotation
					JOINT mixamorig:RightToe_End
					{
						OFFSET 0.000299 0.001700 19.918200
						CHANNELS 3 Xrotation Yrotation Zrotation
						End Site
						{
							OFFSET 0.000000 19.918203 0.000000
						}
					}
				}
			}
		}
	}
}
MOTION
Frames: 4
Frame Time: 0.033333
3.166250 192.057846 -2.181850 -4.277093 1.640603 -0.875294 2.636287 0.228802 0.515183 4.326628 0.421192 0.798494 4.327143 0.421385 0.793887 9.279863 -0.973712 1.453587 -11.175483 -5.677567 2.616787 -0.000000 -0.000000 -0.000000 -0.000000 -0.000000 -0.000000 -0.000000 -0.000000 -0.000000 0.102099 -0.900441 4.508231 -60.418918 15.852618 15.126654 0.000178 -101.778657 0.000168 -23.810758 -13.660891 6.644907 6.875111 6.881203 -90.092196 7.656108 6.837629 -96.481347 1.166226 3.839114 -33.784079 -0.000000 -0.000001 -0.000001 -10.550305 -4.559833 0.984887 17.589581 42.248705 -9.283310 46.549703 56.628999 -27.174635 0.000000 0.000000 -0.000001 6.128986 7.065271 -98.397549 5.273147 6.691533 -76.454351 0.403686 2.327244 -19.679517 -0.000002 0.000000 0.000001 8.241042 6.752930 -103.942966 6.283890 6.855358 -85.008241 0.602553 2.821575 -24.104431 0.000000 0.000001 -0.000003 9.816373 6.933840 -88.979955 6.045644 2.744212 -83.033121 0.492813 2.562537 -21.768165 0.000000 0.000001 -0.000003 0.312217 0.991528 -1.689010 -63.461842 0.807239 -14.903350 0.000848 94.909563 -0.000842 -13.013810 15.279408 8.106707 6.947846 -6.956431 92.793222 7.121485 -6.946121 91.432505 0.987990 -3.485863 30.215603 0.000000 0.000000 -0.000000 -27.555399 13.029400 -5.085758 15.552360 -33.354658 -2.319491 -0.445453 -40.668323 -10.612263 0.000001 0.000001 -0.000000 2.224015 -7.437358 95.550419 6.697110 -6.943674 87.923748 0.612117 -2.857425 24.177539 0.000002 -0.000002 0.000002 7.941484 -6.877379 97.865573 7.250591 -6.941690 92.500330 1.388533 -4.372886 38.071659 -0.000001 0.000001 0.000001 10.793678 -5.815250 119.215447 7.739964 -6.903200 96.558726 2.229794 -5.106185 47.157631 0.000000 0.000001 -0.000002 -18.067348 13.143243 14.014135 35.660452 4.201471 1.592789 -13.258901 1.522521 -9.654629 -0.000036 0.000003 0.000002 -0.000000 -0.000002 -0.000000 -15.870344 -12.256041 -11.406599 33.443294 -8.940004 -2.357830 -11.183540 -4.683887 11.823602 -0.002988 -0.000000 0.000001 0.000000 -0.000000 -0.000000 
2.909686 191.934372 -2.191950 -4.586549 -2.112500 -1.459780 2.658557 -0.075775 0.520663 4.384571 -0.124308 0.826550 4.384323 -0.122845 0.825385 9.240232 -1.149052 1.432055 -11.339569 -6.681222 2.631741 -0.000000 -0.000000 -0.000000 -0.000000 -0.000000 -0.000000 -0.000000 -0.000000 -0.000000 0.075692 -0.840820 4.810254 -60.212106 16.699090 13.976631 -0.000092 -101.972450 -0.000067 -23.537529 -13.311383 5.841281 6.869688 6.881197 -90.044248 7.656224 6.837610 -96.482474 1.166687 3.839825 -33.790790 -0.000000 0.000001 0.000001 -10.479422 -4.507493 0.981589 17.609771 42.277078 -9.298345 46.560351 56.632893 -27.181564 -0.000001 -0.000000 0.000000 6.137120 7.060980 -98.296551 5.256555 6.687536 -76.311900 0.403340 2.326231 -19.670648 -0.000000 -0.000002 0.000000 8.234274 6.754130 -103.856114 6.278492 6.854891 -84.962963 0.602238 2.820871 -24.098057 -0.000000 0.000001 -0.000001 9.820097 6.937736 -88.907746 6.040846 2.743598 -82.992720 0.492633 2.562118 -21.764403 -0.000001 0.000001 0.000001 0.367659 1.564203 -1.702299 -63.835009 0.320899 -15.891065 -0.000664 94.865549 0.000640 -13.286491 15.311881 8.187225 6.928009 -6.956811 92.700024 7.120576 -6.946125 91.424800 0.985482 -3.483226 30.186414 -0.000001 -0.000001 -0.000001 -27.417313 13.072612 -5.295169 15.552361 -33.354665 -2.319498 -0.443551 -40.641248 -10.605907 0.000001 -0.000004 0.000000 2.215964 -7.431694 95.482151 6.692268 -6.943508 87.883785 0.609065 -2.850633 24.116377 -0.000001 0.000001 -0.000002 7.936780 -6.878045 97.828185 7.240559 -6.942132 92.417234 1.387553 -4.368788 38.040885 0.000002 -0.000000 0.000001 10.785264 -5.820270 119.180982 7.726555 -6.904735 96.447353 2.223961 -5.100799 47.091969 -0.000002 0.000001 -0.000000 -17.263737 14.122002 15.281097 35.903381 6.479169 0.944621 -13.670435 1.651050 -10.351224 -0.000035 0.000002 0.000001 -0.000000 0.000002 0.000000 -16.475366 -11.803618 -10.776322 33.672911 -8.618192 -2.648106 -11.183961 -1.745480 11.514827 -0.004129 0.000000 -0.000001 0.000000 0.000000 0.000000 
2.653197 191.773651 -2.189697 -4.843103 -5.863740 -2.021655 2.673465 -0.327024 0.551739 4.420295 -0.574309 0.897537 4.419625 -0.572516 0.899075 9.056286 -1.198636 1.273269 -11.573938 -7.108457 2.696960 0.000000 -0.000002 0.000000 0.000000 -0.000002 0.000000 0.000000 -0.000002 0.000000 0.027192 -0.473612 4.864453 -59.438608 16.873071 12.305838 -0.000001 -101.815383 -0.000024 -22.321639 -13.184409 6.449389 6.863853 6.881189 -89.992646 7.650653 6.838224 -96.435434 1.165183 3.837552 -33.768479 -0.000000 0.000002 -0.000000 -10.402394 -4.460020 1.003454 17.621019 42.292972 -9.306771 46.570839 56.636731 -27.188384 0.000000 0.000000 -0.000000 6.147274 7.056912 -98.211823 5.249634 6.685875 -76.252601 0.403669 2.327162 -19.678902 -0.000001 -0.000000 -0.000002 8.229785 6.754859 -103.788597 6.271609 6.854278 -84.905440 0.602054 2.820488 -24.094279 -0.000002 -0.000002 0.000006 9.824580 6.941334 -88.841684 6.032508 2.742580 -82.922827 0.492520 2.561836 -21.761696 0.000000 -0.000003 0.000003 0.461163 2.409011 -1.797541 -64.150926 -0.555568 -17.927568 0.000475 94.952539 -0.000533 -14.021016 15.492814 7.584426 6.916640 -6.956981 92.638983 7.116872 -6.946195 91.394229 0.984237 -3.482511 30.175895 0.000000 -0.000000 -0.000002 -27.392685 12.986493 -5.228547 15.552360 -33.354658 -2.319494 -0.441256 -40.607124 -10.597902 0.000000 0.000000 -0.000000 2.213213 -7.425526 95.413979 6.687706 -6.943319 87.845870 0.607897 -2.847996 24.092697 0.000002 -0.000002 0.000002 7.936639 -6.878058 97.824906 7.233492 -6.942407 92.358644 1.388030 -4.366733 38.030135 -0.000001 0.000001 -0.000002 10.777297 -5.825024 119.150902 7.714980 -6.906009 96.350924 2.221272 -5.098310 47.061943 0.000001 0.000001 -0.000002 -16.488427 15.061788 16.403135 36.191308 8.858141 0.290205 -14.048639 1.790252 -11.104323 0.000006 -0.000000 -0.000000 -0.000000 -0.000002 0.000000 -17.180287 -11.335799 -9.971845 34.048766 -5.585598 -3.027197 -11.163511 -1.536217 10.628910 -0.013495 0.000003 0.000000 -0.000000 0.000000 0.000000 
2.430685 191.630356 -2.268774 -5.029000 -9.581420 -2.583724 2.643171 -0.623610 0.566207 4.379144 -1.106241 0.945231 4.378161 -1.103495 0.949736 8.997582 -1.100753 1.088985 -11.559005 -6.817272 2.894556 -0.000000 0.000002 0.000000 -0.000000 0.000002 0.000000 -0.000000 0.000002 0.000000 -0.008252 -0.184791 4.863070 -58.751873 16.784210 11.230350 0.000108 -101.567392 0.000097 -21.932940 -13.084118 7.380877 6.857334 6.881161 -89.935368 7.643994 6.838962 -96.379782 1.164757 3.836931 -33.761888 -0.000001 0.000004 0.000000 -10.262911 -4.359609 1.003415 17.636701 42.315013 -9.318448 46.560734 56.632633 -27.180229 0.000001 -0.000000 0.000001 6.157180 7.052888 -98.124875 5.242652 6.684154 -76.192372 0.404436 2.329265 -19.697422 0.000000 0.000002 -0.000000 8.222919 6.756050 -103.700918 6.264755 6.853650 -84.848004 0.602628 2.821758 -24.106056 -0.000001 -0.000002 0.000000 9.824717 6.946764 -88.740154 6.023156 2.741416 -82.844464 0.492469 2.561696 -21.760686 -0.000002 -0.000001 0.000001 0.525072 3.031217 -1.860946 -64.628425 -1.039125 -19.121610 0.000310 94.921038 -0.000308 -14.819475 15.469870 7.704148 6.928790 -6.956390 92.631674 7.117310 -6.946205 91.397541 0.982915 -3.480746 30.157946 0.000001 0.000000 -0.000001 -27.273311 13.076280 -5.468502 15.552360 -33.354658 -2.319495 -0.437490 -40.544976 -10.583528 0.000000 -0.000001 0.000000 2.197236 -7.419468 95.333916 6.683119 -6.943155 87.807997 0.607445 -2.846995 24.083524 0.000003 -0.000000 0.000000 7.935195 -6.878316 97.795304 7.228756 -6.942599 92.319344 1.390018 -4.366641 38.039625 0.000003 0.000000 0.000000 10.771502 -5.828301 119.142719 7.706534 -6.906932 96.280949 2.219810 -5.096946 47.045329 -0.000001 -0.000001 0.000004 -15.768989 15.903585 17.264454 36.418207 9.924685 -0.274021 -14.324698 3.354177 -11.514059 0.000002 0.000002 -0.000003 0.000000 -0.000000 0.000000 -17.951783 -10.880642 -9.189792 34.402205 -2.344803 -3.289307 -11.048336 -1.416455 9.654839 -0.026780 -0.000003 0.000002 -0.000000 0.000000 0.000000 
